<svg version="1.1" id="Layer_1" xmlns="http://www.w3.org/2000/svg" xmlns:xlink="http://www.w3.org/1999/xlink" x="0px" y="0px"
	 width="100%" viewBox="0 0 1563 1563" enable-background="new 0 0 1563 1563" xml:space="preserve">
<path fill="#000000" opacity="1.000000" stroke="none" 
	d="
M1.000000,588.000000 
	C1.000000,392.000031 1.000000,196.500076 1.000000,1.000079 
	C521.999878,1.000052 1042.999756,1.000052 1563.999756,1.000026 
	C1563.999756,521.999817 1563.999756,1042.999634 1563.999878,1563.999512 
	C1043.000366,1563.999756 522.000610,1563.999756 1.000472,1563.999878 
	C1.000000,1238.833374 1.000000,913.666687 1.000000,588.000000 
M272.189331,893.746826 
	C250.295654,898.549072 229.342499,905.771179 210.359695,917.979187 
	C196.844330,926.671082 185.289688,937.273315 178.353973,952.113525 
	C170.234375,969.486816 167.189590,988.145508 167.250931,1006.977417 
	C167.336014,1033.100098 168.070114,1059.301270 170.319168,1085.313843 
	C172.581512,1111.480347 176.460144,1137.551270 180.680969,1163.493164 
	C186.073593,1196.637329 198.157394,1227.803711 210.447922,1258.905884 
	C219.870346,1282.750000 229.661667,1306.277466 244.021255,1327.706909 
	C271.587830,1368.845459 309.543823,1393.497070 358.918213,1398.578979 
	C384.722870,1401.234985 410.804077,1402.426147 436.747284,1402.258301 
	C489.223480,1401.918823 541.705566,1400.648926 594.157410,1398.919556 
	C641.110962,1397.371460 687.953491,1393.806030 734.470642,1386.882568 
	C741.598083,1385.821777 748.630493,1384.122314 755.430725,1382.773071 
	C755.167236,1378.654053 754.962219,1375.449341 754.778687,1372.580200 
	C761.858398,1370.491211 769.288269,1374.469482 776.119995,1369.268311 
	C772.584961,1367.412109 769.749756,1366.355591 767.424438,1364.617188 
	C761.625122,1360.281860 755.387939,1357.237183 748.356995,1355.252197 
	C744.765076,1354.238159 741.136536,1351.560425 738.670715,1348.660156 
	C727.800781,1335.874878 735.529724,1317.061035 752.964844,1313.064819 
	C758.714050,1311.747070 764.399048,1310.149170 770.180298,1308.662109 
	C765.720703,1296.839966 759.541626,1292.614868 747.679688,1292.488647 
	C707.595825,1292.062012 667.431335,1295.592773 627.448120,1290.046997 
	C624.650330,1289.658936 621.784729,1289.779297 618.975281,1289.452271 
	C574.834900,1284.314697 530.598877,1279.855225 486.600372,1273.698975 
	C461.963745,1270.251831 437.697113,1264.098755 413.313904,1258.928711 
	C401.463715,1256.416016 392.546021,1249.801758 385.130524,1239.930908 
	C361.648376,1208.672974 341.927460,1175.285400 326.104218,1139.583252 
	C313.660065,1111.505249 304.255524,1082.500366 300.433868,1051.886353 
	C300.190735,1049.938477 300.402252,1047.933960 300.402252,1045.955811 
	C301.044891,1045.863159 301.687561,1045.770386 302.330200,1045.677612 
	C302.824921,1047.831543 303.375244,1049.974609 303.805054,1052.141357 
	C306.067841,1063.548462 307.556030,1075.168945 310.668518,1086.337524 
	C326.266937,1142.309937 353.693970,1192.274536 388.356110,1238.621460 
	C395.489716,1248.159912 404.257538,1253.808716 415.377502,1256.727051 
	C450.211334,1265.868774 485.724854,1271.375488 521.370728,1275.888794 
	C551.261902,1279.673218 581.276245,1282.504517 611.257202,1285.549438 
	C620.707581,1286.509277 630.226318,1286.795776 639.932312,1287.404175 
	C628.134338,1268.671631 616.463379,1250.895264 605.575134,1232.651855 
	C593.395996,1212.245850 581.719727,1191.442139 575.701050,1168.228760 
	C573.875732,1161.188843 573.368469,1153.363525 574.306335,1146.164917 
	C575.434265,1137.507690 583.836670,1134.024536 591.689514,1137.784790 
	C595.876709,1139.789795 599.952209,1142.062378 603.937988,1144.448364 
	C626.609741,1158.020264 648.936035,1172.203247 671.969971,1185.126587 
	C694.229370,1197.615356 717.815063,1207.367554 743.438599,1210.353638 
	C754.084290,1211.594238 765.190674,1212.081787 775.705505,1210.449951 
	C789.438660,1208.318726 797.876099,1197.750000 804.972961,1186.551514 
	C816.295288,1168.685425 823.123108,1148.903931 828.911560,1128.749023 
	C838.343872,1095.906616 844.527344,1062.375000 848.840515,1028.529419 
	C851.995972,1003.768494 854.268127,978.893616 856.763855,954.052429 
	C856.962524,952.075012 856.424133,949.473328 855.208557,948.007202 
	C851.547302,943.591064 847.401611,939.573853 843.395752,935.448792 
	C842.666626,934.697876 841.684204,933.596252 840.855530,933.627686 
	C827.828491,934.122192 816.738281,928.048462 805.417603,923.049683 
	C796.698303,919.199585 792.803162,910.466614 794.695374,901.174561 
	C794.908630,900.127075 794.936768,899.041748 795.119568,897.329163 
	C786.752686,903.031311 783.029846,910.877197 779.960754,919.496521 
	C769.106506,949.979980 758.226135,980.462891 746.644470,1010.673279 
	C743.175476,1019.721985 737.675354,1028.059937 732.551514,1036.382202 
	C729.228882,1041.778564 723.936096,1044.665039 717.606750,1041.647827 
	C709.871826,1037.960693 701.228821,1034.908081 695.161011,1029.243286 
	C679.852966,1014.952209 665.899658,999.220642 651.159790,984.307251 
	C633.844788,966.788086 617.326721,948.282166 598.611206,932.384277 
	C545.826355,887.546570 483.535492,871.998291 415.408752,876.385986 
	C412.749512,876.557251 411.810333,877.683655 410.594604,880.175842 
	C407.868805,885.763672 404.848267,891.561707 400.605103,895.986633 
	C389.333435,907.741394 374.607483,911.898438 359.005951,909.663452 
	C343.615051,907.458557 328.440887,903.190186 321.288818,885.681824 
	C305.096283,888.306091 289.043610,890.907715 272.189331,893.746826 
M1108.132568,192.364700 
	C1096.342651,182.334091 1084.959106,171.771271 1072.671509,162.392609 
	C1052.168701,146.743439 1029.952881,134.231033 1004.148254,129.361542 
	C974.635559,123.792313 949.382141,135.335266 934.470276,161.361893 
	C923.391541,180.698242 919.394470,202.021118 918.089355,223.839188 
	C915.574219,265.885223 922.085876,306.963623 932.656799,347.513763 
	C953.514160,427.522705 988.357361,501.221283 1033.712646,570.074036 
	C1063.247314,614.909912 1096.964722,656.193726 1139.306763,689.760498 
	C1161.045654,706.994019 1184.428223,721.227844 1211.850220,727.680969 
	C1241.917969,734.756775 1269.789795,722.785461 1284.923096,695.979492 
	C1295.899170,676.537781 1299.474976,655.070740 1300.989990,633.212830 
	C1303.618286,595.296082 1298.203125,558.125427 1289.464600,521.380005 
	C1272.651611,450.681458 1244.294434,384.683624 1207.543091,322.170532 
	C1179.839844,275.048279 1147.758789,231.257141 1108.132568,192.364700 
M1423.517578,1170.011963 
	C1430.514282,1148.725098 1437.487793,1127.430542 1444.513184,1106.153076 
	C1454.505737,1075.888916 1464.548950,1045.641235 1474.545166,1015.378296 
	C1478.382080,1003.762634 1474.337524,993.478821 1464.060059,989.878479 
	C1460.563354,988.653564 1456.547729,988.545715 1452.768921,988.542908 
	C1360.457153,988.474670 1268.145386,988.489563 1175.833618,988.489624 
	C1163.003296,988.489624 1150.172241,988.402893 1137.342896,988.512085 
	C1121.536865,988.646606 1108.014282,998.477173 1103.142578,1012.928345 
	C1070.581909,1109.514648 1037.978760,1206.086670 1005.396667,1302.665649 
	C1001.229187,1315.018921 997.104370,1327.386475 992.907532,1339.903320 
	C1118.174683,1339.903320 1242.925781,1339.903320 1367.648193,1339.903320 
	C1386.222900,1283.350708 1404.715942,1227.047119 1423.517578,1170.011963 
M801.015564,496.446686 
	C796.581177,471.554108 794.963135,446.721558 803.783936,420.850067 
	C801.141968,422.443970 799.866333,423.119232 798.689758,423.937042 
	C738.726868,465.615265 678.775574,507.310211 618.812317,548.987915 
	C612.272949,553.533142 607.859436,559.485229 605.858704,567.276062 
	C602.468018,580.479858 603.160828,593.741455 605.575745,606.906738 
	C613.722656,651.321350 633.866516,690.002502 662.754150,724.307556 
	C671.577454,734.785522 681.619263,744.047852 694.050659,750.312500 
	C701.588928,754.111267 709.327209,755.733215 717.608276,752.883606 
	C787.463257,728.845642 857.325806,704.829651 927.179382,680.787598 
	C928.662476,680.277161 930.065918,679.535400 931.394775,678.950684 
	C925.582031,676.745728 919.797791,675.087830 914.502625,672.448669 
	C893.469299,661.965027 877.266418,645.683289 862.940613,627.556763 
	C832.397339,588.910095 810.951538,545.832092 801.015564,496.446686 
M778.860840,230.324158 
	C780.275269,218.255432 781.922791,206.208084 783.032166,194.111389 
	C783.957947,184.016479 779.356079,178.176575 769.433411,176.764709 
	C754.604492,174.654755 739.721863,172.918228 724.855042,171.079941 
	C688.017212,166.524887 651.169739,162.046982 614.338806,157.437317 
	C604.187012,156.166763 597.153687,161.444199 595.911621,171.598709 
	C593.708679,189.608322 591.428955,207.608582 589.248962,225.620956 
	C587.408936,240.824295 585.420776,256.015961 583.966187,271.257477 
	C583.031250,281.054291 588.395569,286.946228 598.109253,288.127380 
	C612.980469,289.935699 627.832886,291.903015 642.713623,293.627167 
	C651.081970,294.596710 656.251282,299.141663 659.198242,306.846039 
	C662.689941,315.974609 666.433289,325.006927 670.109497,334.185516 
	C670.615967,333.760559 670.933105,333.603180 671.089355,333.347534 
	C675.508972,326.115265 679.905090,318.868744 684.320068,311.633667 
	C689.690491,302.832886 696.009827,299.948425 706.114136,301.284729 
	C721.789795,303.357880 737.477661,305.347931 753.179443,307.212616 
	C763.398560,308.426208 769.861023,303.243866 771.107544,293.165802 
	C773.661499,272.516205 776.207458,251.865646 778.860840,230.324158 
M317.994904,259.493683 
	C339.388977,281.004669 364.598938,287.275330 393.274109,277.418976 
	C425.524994,266.333588 447.245453,231.202774 442.157898,196.293396 
	C439.213196,176.087524 430.507233,159.370377 413.933502,147.636551 
	C390.499786,131.045975 365.009460,128.685165 339.626556,142.202820 
	C310.840515,157.532791 297.289337,182.384995 298.991150,215.216278 
	C299.863831,232.052002 306.368622,246.494278 317.994904,259.493683 
M612.163635,644.253174 
	C603.403625,618.491577 597.153259,592.423767 602.286133,564.476562 
	C600.691284,565.437683 599.907898,566.948608 598.767151,568.107788 
	C581.354797,585.801514 564.145996,603.707336 546.330566,620.987305 
	C538.661011,628.426331 535.287964,637.011536 535.310913,647.227478 
	C535.322876,652.535400 535.689514,657.900269 536.526123,663.138794 
	C540.832520,690.101929 552.101685,714.162354 567.806213,736.247864 
	C575.557983,747.149353 584.296936,757.144836 595.772583,764.434143 
	C602.251404,768.549500 609.013367,770.138489 616.671265,768.705017 
	C624.841675,767.175598 633.113708,766.188965 641.341431,764.966064 
	C660.192444,762.164185 679.043457,759.362732 697.219238,756.661438 
	C689.681580,751.399109 681.203796,746.720581 674.223572,740.390686 
	C645.245239,714.112793 626.549438,680.996582 612.163635,644.253174 
M862.296082,1364.179688 
	C867.541199,1365.745239 872.694824,1367.936890 878.054260,1368.720825 
	C885.043030,1369.742920 892.300232,1370.590332 899.251648,1369.812378 
	C909.368042,1368.680420 913.085815,1360.273560 907.967651,1351.505371 
	C905.815430,1347.818237 903.081543,1344.334595 900.056030,1341.315796 
	C882.558228,1323.856567 861.480835,1311.503052 839.936646,1299.901855 
	C831.790771,1295.515503 823.107544,1295.295288 814.294983,1297.953857 
	C793.175720,1304.325317 772.038208,1310.636353 750.925049,1317.027832 
	C743.146606,1319.382446 736.734314,1328.009644 736.837463,1335.740234 
	C736.938965,1343.350708 742.718079,1350.105347 750.517578,1352.961182 
	C756.346680,1355.095581 762.148743,1357.663818 767.395508,1360.945801 
	C775.603455,1366.080444 783.965515,1368.339722 793.422058,1365.457764 
	C804.362244,1362.123901 815.378357,1359.026611 826.248840,1355.480957 
	C831.957642,1353.618896 837.162842,1353.804565 842.634583,1356.335938 
	C848.794189,1359.185303 855.222046,1361.454834 862.296082,1364.179688 
M394.605469,897.138489 
	C403.324493,890.590820 409.185791,881.990479 408.804016,871.024597 
	C408.420349,860.003845 406.201355,849.047058 404.768127,837.918640 
	C391.080017,838.538208 381.414398,832.934265 374.924103,821.695618 
	C373.264374,818.821655 371.689423,815.893372 369.910339,813.095093 
	C367.419708,809.177612 365.091064,805.093384 362.128265,801.553284 
	C356.201172,794.471375 347.988373,793.598206 340.359528,798.859375 
	C338.036438,800.461426 335.811462,802.215942 333.620819,803.997986 
	C327.964447,808.599487 322.008911,810.827881 315.172058,806.151794 
	C315.080231,806.928955 314.973022,807.265381 315.012451,807.583618 
	C318.098572,832.494995 321.106659,857.416687 324.361694,882.306030 
	C325.091248,887.884338 327.767395,892.767029 332.488312,896.134888 
	C350.613098,909.065369 376.429871,910.832092 394.605469,897.138489 
M349.295532,724.186035 
	C353.849701,730.921753 358.587799,737.541809 362.915070,744.420288 
	C369.455811,754.817322 375.576263,765.478943 382.127380,775.869202 
	C387.658966,784.642395 391.171082,786.510803 401.243042,783.270325 
	C412.542725,779.634827 423.344025,774.456421 434.383728,770.002808 
	C437.637543,768.690125 439.291779,766.608765 439.336670,762.902039 
	C439.373993,759.819336 440.069489,757.013123 443.438995,755.114502 
	C449.971100,751.433899 450.046112,748.751404 444.855103,743.229248 
	C430.702484,728.173523 417.654175,712.261963 407.432098,694.206177 
	C401.928009,684.484070 401.922272,684.216125 391.019684,686.051697 
	C370.907959,689.437622 354.950317,699.547424 343.155396,716.269775 
	C345.194855,718.885742 347.033691,721.244324 349.295532,724.186035 
M830.279541,875.112122 
	C830.033875,873.804260 829.822815,872.488831 829.537354,871.189758 
	C823.194519,842.325562 816.842529,813.463440 810.494934,784.600281 
	C809.245667,778.919678 808.369263,773.122375 806.625183,767.598511 
	C805.618713,764.410645 803.751648,761.087646 801.328430,758.844788 
	C797.221130,755.043152 792.786133,756.740479 791.989685,762.287537 
	C790.429749,773.151184 788.993958,784.051086 788.077698,794.983826 
	C787.057373,807.157715 792.536743,817.494568 799.552124,826.670105 
	C808.409973,838.255432 809.817139,851.035339 807.223755,864.496033 
	C805.061157,875.720154 802.008728,886.796509 798.877686,897.803833 
	C795.511169,909.638855 798.685242,917.036133 810.095764,921.753723 
	C816.067871,924.222900 822.043213,926.788757 828.222351,928.617676 
	C832.653931,929.929382 837.425659,930.091797 842.218689,930.792236 
	C839.982910,920.607727 837.982544,911.706909 836.083313,902.784607 
	C834.179504,893.841248 832.376465,884.876526 830.279541,875.112122 
M835.786865,827.794128 
	C838.518616,828.957153 841.157104,830.477173 843.998657,831.219910 
	C854.794250,834.041321 865.075867,831.764893 875.119873,827.622314 
	C876.767822,826.942566 878.531677,826.543640 879.917664,826.115234 
	C880.324829,830.330017 880.659119,833.790710 880.993408,837.251465 
	C881.434021,837.431946 881.874634,837.612488 882.315247,837.793030 
	C886.051270,832.405823 890.340759,827.314209 893.407471,821.569702 
	C899.717041,809.751160 902.192322,797.248901 897.081665,784.210449 
	C893.504517,775.084229 886.621887,770.665894 876.961426,770.997864 
	C859.956482,771.582153 836.078735,788.894958 830.965515,804.953613 
	C828.439453,812.886902 829.064148,820.767822 835.786865,827.794128 
M365.468079,453.796021 
	C368.495819,460.803619 374.159546,465.145721 380.865082,467.969482 
	C390.180206,471.892151 399.716492,475.291595 409.174225,478.872498 
	C412.116760,479.986664 414.350616,479.054901 415.793457,476.248901 
	C420.117096,467.840240 424.633636,459.523743 428.704498,450.994507 
	C431.743713,444.626740 433.455383,437.881226 432.070435,430.674805 
	C429.120178,415.322937 411.951263,407.723450 400.550262,417.052765 
	C397.371307,419.654053 395.373077,423.698181 392.654449,427.318359 
	C387.556061,424.680420 381.723114,423.206970 375.541077,425.868073 
	C365.037506,430.389343 361.219025,440.401428 365.468079,453.796021 
M329.195740,740.549011 
	C327.745575,743.683533 325.242188,746.757446 325.057709,749.964722 
	C324.633240,757.345154 331.617035,765.328125 338.731262,766.882568 
	C345.932526,768.455994 353.053284,764.426819 357.567902,755.503174 
	C352.087433,750.937378 346.737579,745.708313 340.588226,741.708374 
	C337.834015,739.916809 333.477234,740.588928 329.195740,740.549011 
z"/>
<path fill="#FFFFFF" opacity="1.000000" stroke="none" 
	d="
M272.590149,893.628052 
	C289.043610,890.907715 305.096283,888.306091 321.288818,885.681824 
	C328.440887,903.190186 343.615051,907.458557 359.005951,909.663452 
	C374.607483,911.898438 389.333435,907.741394 400.605103,895.986633 
	C404.848267,891.561707 407.868805,885.763672 410.594604,880.175842 
	C411.810333,877.683655 412.749512,876.557251 415.408752,876.385986 
	C483.535492,871.998291 545.826355,887.546570 598.611206,932.384277 
	C617.326721,948.282166 633.844788,966.788086 651.159790,984.307251 
	C665.899658,999.220642 679.852966,1014.952209 695.161011,1029.243286 
	C701.228821,1034.908081 709.871826,1037.960693 717.606750,1041.647827 
	C723.936096,1044.665039 729.228882,1041.778564 732.551514,1036.382202 
	C737.675354,1028.059937 743.175476,1019.721985 746.644470,1010.673279 
	C758.226135,980.462891 769.106506,949.979980 779.960754,919.496521 
	C783.029846,910.877197 786.752686,903.031311 795.119568,897.329163 
	C794.936768,899.041748 794.908630,900.127075 794.695374,901.174561 
	C792.803162,910.466614 796.698303,919.199585 805.417603,923.049683 
	C816.738281,928.048462 827.828491,934.122192 840.855530,933.627686 
	C841.684204,933.596252 842.666626,934.697876 843.395752,935.448792 
	C847.401611,939.573853 851.547302,943.591064 855.208557,948.007202 
	C856.424133,949.473328 856.962524,952.075012 856.763855,954.052429 
	C854.268127,978.893616 851.995972,1003.768494 848.840515,1028.529419 
	C844.527344,1062.375000 838.343872,1095.906616 828.911560,1128.749023 
	C823.123108,1148.903931 816.295288,1168.685425 804.972961,1186.551514 
	C797.876099,1197.750000 789.438660,1208.318726 775.705505,1210.449951 
	C765.190674,1212.081787 754.084290,1211.594238 743.438599,1210.353638 
	C717.815063,1207.367554 694.229370,1197.615356 671.969971,1185.126587 
	C648.936035,1172.203247 626.609741,1158.020264 603.937988,1144.448364 
	C599.952209,1142.062378 595.876709,1139.789795 591.689514,1137.784790 
	C583.836670,1134.024536 575.434265,1137.507690 574.306335,1146.164917 
	C573.368469,1153.363525 573.875732,1161.188843 575.701050,1168.228760 
	C581.719727,1191.442139 593.395996,1212.245850 605.575134,1232.651855 
	C616.463379,1250.895264 628.134338,1268.671631 639.932312,1287.404175 
	C630.226318,1286.795776 620.707581,1286.509277 611.257202,1285.549438 
	C581.276245,1282.504517 551.261902,1279.673218 521.370728,1275.888794 
	C485.724854,1271.375488 450.211334,1265.868774 415.377502,1256.727051 
	C404.257538,1253.808716 395.489716,1248.159912 388.356110,1238.621460 
	C353.693970,1192.274536 326.266937,1142.309937 310.668518,1086.337524 
	C307.556030,1075.168945 306.067841,1063.548462 303.805054,1052.141357 
	C303.375244,1049.974609 302.824921,1047.831543 302.330200,1045.677612 
	C301.687561,1045.770386 301.044891,1045.863159 300.402252,1045.955811 
	C300.402252,1047.933960 300.190735,1049.938477 300.433868,1051.886353 
	C304.255524,1082.500366 313.660065,1111.505249 326.104218,1139.583252 
	C341.927460,1175.285400 361.648376,1208.672974 385.130524,1239.930908 
	C392.546021,1249.801758 401.463715,1256.416016 413.313904,1258.928711 
	C437.697113,1264.098755 461.963745,1270.251831 486.600372,1273.698975 
	C530.598877,1279.855225 574.834900,1284.314697 618.975281,1289.452271 
	C621.784729,1289.779297 624.650330,1289.658936 627.448120,1290.046997 
	C667.431335,1295.592773 707.595825,1292.062012 747.679688,1292.488647 
	C759.541626,1292.614868 765.720703,1296.839966 770.180298,1308.662109 
	C764.399048,1310.149170 758.714050,1311.747070 752.964844,1313.064819 
	C735.529724,1317.061035 727.800781,1335.874878 738.670715,1348.660156 
	C741.136536,1351.560425 744.765076,1354.238159 748.356995,1355.252197 
	C755.387939,1357.237183 761.625122,1360.281860 767.424438,1364.617188 
	C769.749756,1366.355591 772.584961,1367.412109 776.119995,1369.268311 
	C769.288269,1374.469482 761.858398,1370.491211 754.778687,1372.580200 
	C754.962219,1375.449341 755.167236,1378.654053 755.430725,1382.773071 
	C748.630493,1384.122314 741.598083,1385.821777 734.470642,1386.882568 
	C687.953491,1393.806030 641.110962,1397.371460 594.157410,1398.919556 
	C541.705566,1400.648926 489.223480,1401.918823 436.747284,1402.258301 
	C410.804077,1402.426147 384.722870,1401.234985 358.918213,1398.578979 
	C309.543823,1393.497070 271.587830,1368.845459 244.021255,1327.706909 
	C229.661667,1306.277466 219.870346,1282.750000 210.447922,1258.905884 
	C198.157394,1227.803711 186.073593,1196.637329 180.680969,1163.493164 
	C176.460144,1137.551270 172.581512,1111.480347 170.319168,1085.313843 
	C168.070114,1059.301270 167.336014,1033.100098 167.250931,1006.977417 
	C167.189590,988.145508 170.234375,969.486816 178.353973,952.113525 
	C185.289688,937.273315 196.844330,926.671082 210.359695,917.979187 
	C229.342499,905.771179 250.295654,898.549072 272.590149,893.628052 
M705.042603,1344.303345 
	C708.814636,1352.628784 709.263489,1353.172363 713.683838,1353.830811 
	C712.753113,1352.025024 712.164429,1350.606812 711.345154,1349.337402 
	C705.149475,1339.738159 705.110291,1329.994263 712.007446,1321.038330 
	C716.098267,1315.726685 721.636475,1311.537720 726.445068,1306.764526 
	C727.489685,1305.727539 728.197388,1304.351318 729.060303,1303.131348 
	C727.500488,1303.446045 725.634155,1303.323120 724.439758,1304.159546 
	C721.184387,1306.439331 717.945496,1308.863525 715.179016,1311.697754 
	C706.534058,1320.554688 700.909180,1330.526855 705.042603,1344.303345 
z"/>
<path fill="#FEFEFE" opacity="1.000000" stroke="none" 
	d="
M1108.387451,192.610138 
	C1147.758789,231.257141 1179.839844,275.048279 1207.543091,322.170532 
	C1244.294434,384.683624 1272.651611,450.681458 1289.464600,521.380005 
	C1298.203125,558.125427 1303.618286,595.296082 1300.989990,633.212830 
	C1299.474976,655.070740 1295.899170,676.537781 1284.923096,695.979492 
	C1269.789795,722.785461 1241.917969,734.756775 1211.850220,727.680969 
	C1184.428223,721.227844 1161.045654,706.994019 1139.306763,689.760498 
	C1096.964722,656.193726 1063.247314,614.909912 1033.712646,570.074036 
	C988.357361,501.221283 953.514160,427.522705 932.656799,347.513763 
	C922.085876,306.963623 915.574219,265.885223 918.089355,223.839188 
	C919.394470,202.021118 923.391541,180.698242 934.470276,161.361893 
	C949.382141,135.335266 974.635559,123.792313 1004.148254,129.361542 
	C1029.952881,134.231033 1052.168701,146.743439 1072.671509,162.392609 
	C1084.959106,171.771271 1096.342651,182.334091 1108.387451,192.610138 
M1121.924561,244.581360 
	C1128.094727,251.380692 1134.264893,258.180023 1140.435181,264.979370 
	C1140.958984,264.639435 1141.482788,264.299530 1142.006714,263.959625 
	C1141.362183,262.625885 1140.964844,261.082153 1140.036621,259.989319 
	C1120.447266,236.924271 1099.203369,215.604385 1074.078369,198.491257 
	C1059.579590,188.615845 1044.244019,180.434647 1026.992554,176.339020 
	C995.987427,168.978256 971.190063,181.031433 957.911804,210.059937 
	C950.741211,225.735947 947.918274,242.423813 947.059021,259.469513 
	C945.520874,289.980865 949.597351,319.942566 956.502991,349.579315 
	C971.659485,414.625275 998.519287,474.762939 1033.401611,531.442810 
	C1059.552734,573.935303 1089.902222,613.041443 1128.585938,645.033752 
	C1147.668701,660.815674 1168.126343,674.474243 1192.655518,680.401611 
	C1215.114990,685.828674 1235.395142,682.216431 1251.452026,664.251160 
	C1260.757690,653.839478 1265.764526,641.196289 1269.065796,627.808533 
	C1275.265503,602.666992 1274.713013,577.240051 1271.680298,551.825562 
	C1265.843018,502.909088 1251.293457,456.399414 1231.911865,411.289734 
	C1231.344727,409.969757 1230.241333,408.880249 1229.387939,407.683228 
	C1228.889771,407.918488 1228.391479,408.153717 1227.893311,408.388947 
	C1228.455688,410.261780 1228.847656,412.206757 1229.605591,413.996735 
	C1243.629761,447.111877 1255.157837,481.036316 1262.512573,516.284973 
	C1269.421753,549.397217 1273.346069,582.762085 1267.805908,616.469910 
	C1266.230957,626.051636 1263.505737,635.694946 1259.677246,644.609619 
	C1247.028564,674.060913 1220.869263,685.716248 1190.056274,676.661682 
	C1174.390991,672.058472 1160.273315,664.414124 1146.963501,655.205750 
	C1120.142456,636.649597 1097.817505,613.349731 1077.367310,588.180969 
	C1069.017456,577.904480 1061.232178,567.169189 1053.091431,556.513733 
	C1054.572021,555.273071 1055.430420,554.513611 1056.329712,553.806274 
	C1073.214478,540.525635 1090.076904,527.216492 1107.007935,513.995178 
	C1112.409668,509.777191 1117.049561,504.951935 1117.817749,497.900482 
	C1118.498047,491.656494 1119.020630,485.234192 1118.337769,479.030945 
	C1115.501587,453.262543 1104.652710,430.580200 1090.034180,409.592590 
	C1082.961426,399.438446 1074.678223,390.269043 1064.019531,383.641693 
	C1057.328613,379.481506 1050.314331,377.089783 1042.243408,379.734650 
	C1031.670898,383.199249 1020.994080,386.347565 1010.347046,389.582520 
	C998.462341,393.193512 986.560791,396.749084 974.285217,400.443542 
	C971.610168,391.820160 968.904297,383.634857 966.531006,375.354279 
	C956.309082,339.689087 949.170227,303.531006 950.044006,266.200500 
	C950.502869,246.597992 953.306152,227.423325 961.860596,209.477646 
	C972.432739,187.299026 990.290222,176.460693 1014.663513,177.820450 
	C1029.764893,178.662933 1043.443848,184.358093 1056.508301,191.479492 
	C1081.351074,205.021255 1102.193115,223.578583 1121.924561,244.581360 
z"/>
<path fill="#FEFEFE" opacity="1.000000" stroke="none" 
	d="
M1423.363281,1170.377686 
	C1404.715942,1227.047119 1386.222900,1283.350708 1367.648193,1339.903320 
	C1242.925781,1339.903320 1118.174683,1339.903320 992.907532,1339.903320 
	C997.104370,1327.386475 1001.229187,1315.018921 1005.396667,1302.665649 
	C1037.978760,1206.086670 1070.581909,1109.514648 1103.142578,1012.928345 
	C1108.014282,998.477173 1121.536865,988.646606 1137.342896,988.512085 
	C1150.172241,988.402893 1163.003296,988.489624 1175.833618,988.489624 
	C1268.145386,988.489563 1360.457153,988.474670 1452.768921,988.542908 
	C1456.547729,988.545715 1460.563354,988.653564 1464.060059,989.878479 
	C1474.337524,993.478821 1478.382080,1003.762634 1474.545166,1015.378296 
	C1464.548950,1045.641235 1454.505737,1075.888916 1444.513184,1106.153076 
	C1437.487793,1127.430542 1430.514282,1148.725098 1423.363281,1170.377686 
M1358.626709,1261.061157 
	C1371.473389,1222.995850 1384.338745,1184.936768 1397.154663,1146.861084 
	C1400.582397,1136.677246 1396.192139,1130.579346 1385.457520,1130.502319 
	C1377.792236,1130.447266 1370.125610,1130.444214 1362.460327,1130.504639 
	C1354.309448,1130.568848 1351.661743,1132.567993 1349.007080,1140.354370 
	C1338.185547,1172.096436 1327.354858,1203.835327 1316.529785,1235.576050 
	C1309.564331,1255.999878 1302.544922,1276.405640 1295.666504,1296.858887 
	C1292.637695,1305.865356 1297.170654,1312.084595 1306.641724,1312.154419 
	C1315.306885,1312.218262 1323.973755,1312.234375 1332.638428,1312.143188 
	C1339.033203,1312.075806 1341.973145,1309.927734 1344.075684,1303.781372 
	C1348.859619,1289.795898 1353.547485,1275.777588 1358.626709,1261.061157 
M1236.325684,1215.786743 
	C1227.518433,1242.565063 1218.692505,1269.337158 1209.912964,1296.124512 
	C1206.423584,1306.770874 1210.577759,1312.446899 1221.847534,1312.504028 
	C1230.001465,1312.545288 1238.156006,1312.548584 1246.309692,1312.500488 
	C1253.003174,1312.460938 1255.945190,1310.358154 1258.083618,1303.950439 
	C1261.599365,1293.415039 1265.017822,1282.847046 1268.463135,1272.288208 
	C1274.790039,1252.898682 1281.169434,1233.526123 1287.400146,1214.105713 
	C1290.329346,1204.975220 1285.964478,1198.745850 1276.611694,1198.517334 
	C1270.790771,1198.375122 1264.963501,1198.488159 1259.139160,1198.488037 
	C1241.742310,1198.487671 1241.726685,1198.499512 1236.325684,1215.786743 
M1187.041016,1257.622070 
	C1187.503052,1256.203491 1187.982300,1254.790039 1188.424316,1253.365356 
	C1191.424438,1243.696289 1187.108765,1237.614990 1177.047119,1237.504639 
	C1168.729858,1237.413452 1160.408203,1237.367188 1152.092896,1237.526978 
	C1145.342163,1237.656616 1142.356567,1239.905396 1140.291382,1246.156616 
	C1134.674072,1263.158813 1129.077515,1280.168457 1123.590088,1297.212891 
	C1120.648071,1306.351562 1124.941528,1312.321899 1134.533936,1312.484009 
	C1142.683594,1312.621826 1150.837524,1312.520630 1158.989502,1312.512695 
	C1167.459839,1312.504395 1170.069946,1310.605469 1172.712524,1302.427246 
	C1177.451904,1287.758911 1182.159302,1273.080444 1187.041016,1257.622070 
M1085.888184,1305.190186 
	C1088.763794,1296.350952 1091.728271,1287.539551 1094.489014,1278.664429 
	C1096.979248,1270.658325 1093.285889,1264.054810 1085.643677,1263.713745 
	C1075.841919,1263.276611 1066.003418,1263.501709 1056.184937,1263.679077 
	C1051.618408,1263.761597 1048.285278,1266.169067 1046.760742,1270.570801 
	C1043.501465,1279.981445 1040.084351,1289.350708 1037.247559,1298.890381 
	C1035.007690,1306.422241 1039.990601,1312.466919 1047.896851,1312.508545 
	C1056.723145,1312.555054 1065.551147,1312.428589 1074.375854,1312.553711 
	C1079.576782,1312.627319 1083.387817,1310.699463 1085.888184,1305.190186 
M1328.708130,1119.216064 
	C1313.083496,1130.821655 1297.939087,1143.150391 1281.747070,1153.901367 
	C1226.693970,1190.454712 1166.640991,1215.904419 1102.688721,1232.165161 
	C1088.374390,1235.804565 1073.731201,1238.145142 1059.260254,1241.182495 
	C1057.271484,1241.599854 1055.403320,1242.592041 1053.479248,1243.318115 
	C1053.965454,1244.252441 1054.451782,1245.186768 1054.937988,1246.121094 
	C1205.119629,1217.246826 1331.987427,1149.866821 1422.296387,1021.313171 
	C1423.797119,1030.784912 1425.235107,1039.861328 1426.673096,1048.937866 
	C1427.523682,1048.802002 1428.374268,1048.666138 1429.224854,1048.530273 
	C1428.641479,1036.286133 1426.022949,1024.288452 1424.334229,1011.217102 
	C1411.637451,1017.776428 1399.472656,1022.811829 1388.194580,1029.533081 
	C1388.564819,1030.329834 1388.935059,1031.126709 1389.305298,1031.923584 
	C1399.162354,1027.218384 1409.019287,1022.513123 1418.876343,1017.807861 
	C1394.316406,1056.437744 1364.123779,1089.698486 1328.708130,1119.216064 
z"/>
<path fill="#FEFEFE" opacity="1.000000" stroke="none" 
	d="
M801.069458,496.872559 
	C810.951538,545.832092 832.397339,588.910095 862.940613,627.556763 
	C877.266418,645.683289 893.469299,661.965027 914.502625,672.448669 
	C919.797791,675.087830 925.582031,676.745728 931.394775,678.950684 
	C930.065918,679.535400 928.662476,680.277161 927.179382,680.787598 
	C857.325806,704.829651 787.463257,728.845642 717.608276,752.883606 
	C709.327209,755.733215 701.588928,754.111267 694.050659,750.312500 
	C681.619263,744.047852 671.577454,734.785522 662.754150,724.307556 
	C633.866516,690.002502 613.722656,651.321350 605.575745,606.906738 
	C603.160828,593.741455 602.468018,580.479858 605.858704,567.276062 
	C607.859436,559.485229 612.272949,553.533142 618.812317,548.987915 
	C678.775574,507.310211 738.726868,465.615265 798.689758,423.937042 
	C799.866333,423.119232 801.141968,422.443970 803.783936,420.850067 
	C794.963135,446.721558 796.581177,471.554108 801.069458,496.872559 
z"/>
<path fill="#FEFEFE" opacity="1.000000" stroke="none" 
	d="
M778.808777,230.769806 
	C776.207458,251.865646 773.661499,272.516205 771.107544,293.165802 
	C769.861023,303.243866 763.398560,308.426208 753.179443,307.212616 
	C737.477661,305.347931 721.789795,303.357880 706.114136,301.284729 
	C696.009827,299.948425 689.690491,302.832886 684.320068,311.633667 
	C679.905090,318.868744 675.508972,326.115265 671.089355,333.347534 
	C670.933105,333.603180 670.615967,333.760559 670.109497,334.185516 
	C666.433289,325.006927 662.689941,315.974609 659.198242,306.846039 
	C656.251282,299.141663 651.081970,294.596710 642.713623,293.627167 
	C627.832886,291.903015 612.980469,289.935699 598.109253,288.127380 
	C588.395569,286.946228 583.031250,281.054291 583.966187,271.257477 
	C585.420776,256.015961 587.408936,240.824295 589.248962,225.620956 
	C591.428955,207.608582 593.708679,189.608322 595.911621,171.598709 
	C597.153687,161.444199 604.187012,156.166763 614.338806,157.437317 
	C651.169739,162.046982 688.017212,166.524887 724.855042,171.079941 
	C739.721863,172.918228 754.604492,174.654755 769.433411,176.764709 
	C779.356079,178.176575 783.957947,184.016479 783.032166,194.111389 
	C781.922791,206.208084 780.275269,218.255432 778.808777,230.769806 
M681.492432,221.976990 
	C684.652161,220.957947 687.852112,220.047211 690.960632,218.890488 
	C694.311401,217.643661 696.933167,217.139557 700.108704,220.239426 
	C705.088501,225.100571 712.240112,224.996384 718.037781,221.112411 
	C723.592102,217.391495 726.071533,210.490204 724.172791,204.035767 
	C722.231384,197.436127 716.523193,192.959198 709.890686,192.834518 
	C703.080872,192.706482 697.167480,196.750397 694.987061,203.149429 
	C694.354187,205.006744 694.006165,206.961121 693.573181,208.688995 
	C684.218323,211.738831 675.064636,214.701614 665.928223,217.716827 
	C663.629456,218.475449 661.938965,218.600098 659.824158,216.537506 
	C653.620239,210.486786 644.914856,210.635574 638.773010,216.387253 
	C633.121887,221.679382 632.372986,230.440796 637.026672,236.815674 
	C641.782166,243.329926 650.470886,245.202377 657.378418,240.595001 
	C659.981567,238.858643 661.657959,239.163467 664.000122,240.460999 
	C670.675781,244.159271 677.409729,247.755371 684.177917,251.281921 
	C686.813110,252.654968 688.265930,254.041611 688.299561,257.590240 
	C688.382141,266.315155 695.953613,272.680054 704.583679,272.102905 
	C713.121338,271.531952 719.486572,264.030090 718.841003,255.442352 
	C718.047791,244.890091 705.199280,235.457367 692.373413,245.676498 
	C683.882324,241.121414 675.254883,236.554459 666.718323,231.823547 
	C665.815918,231.323456 664.864868,229.776154 664.995667,228.867035 
	C665.125427,227.964630 666.463745,226.896164 667.496887,226.522705 
	C671.859680,224.945709 676.306458,223.600845 681.492432,221.976990 
z"/>
<path fill="#FEFEFE" opacity="1.000000" stroke="none" 
	d="
M317.741394,259.243683 
	C306.368622,246.494278 299.863831,232.052002 298.991150,215.216278 
	C297.289337,182.384995 310.840515,157.532791 339.626556,142.202820 
	C365.009460,128.685165 390.499786,131.045975 413.933502,147.636551 
	C430.507233,159.370377 439.213196,176.087524 442.157898,196.293396 
	C447.245453,231.202774 425.524994,266.333588 393.274109,277.418976 
	C364.598938,287.275330 339.388977,281.004669 317.741394,259.243683 
M370.688477,198.992218 
	C369.690704,198.952744 368.672974,199.026108 367.698792,198.853485 
	C364.215759,198.236359 359.762390,198.717041 359.119995,193.831375 
	C358.481262,188.973557 362.431274,187.127335 366.087616,186.085831 
	C370.801270,184.743164 375.739136,184.187500 381.154358,183.186859 
	C380.812531,179.642990 380.427979,175.655930 379.984955,171.062927 
	C374.498169,171.797729 369.610565,172.452271 364.557159,173.129028 
	C363.571960,170.470398 362.566071,167.755936 361.500092,164.879257 
	C358.061920,166.215897 355.044403,167.388977 351.950562,168.591736 
	C353.078583,172.007828 354.053436,174.960022 355.024200,177.899887 
	C353.331451,179.370453 351.806702,180.630783 350.353516,181.968796 
	C344.440002,187.413498 342.256836,194.090042 344.475128,201.834610 
	C346.616913,209.311966 352.352081,212.704590 359.647827,213.600723 
	C363.427551,214.064987 367.292145,213.792130 371.105743,214.043640 
	C373.572998,214.206360 376.142426,214.352951 378.445221,215.147049 
	C382.795685,216.647247 384.008972,221.557190 380.697388,224.743683 
	C378.745636,226.621689 376.130249,228.296936 373.538391,228.920364 
	C368.294495,230.181656 362.863403,230.664719 357.013031,231.543213 
	C357.328064,235.005890 357.699036,239.083115 358.153320,244.075806 
	C364.419434,243.369507 370.420593,242.693069 376.481445,242.009903 
	C377.551270,244.870148 378.626068,247.743713 379.772736,250.809464 
	C383.135986,249.514175 386.025360,248.401398 389.293976,247.142578 
	C388.138123,243.660599 387.061340,240.416763 385.970886,237.131744 
	C387.907745,235.514008 389.792419,234.157639 391.419342,232.541763 
	C397.157471,226.842422 399.507416,220.135498 397.170868,212.125626 
	C394.889679,204.305618 389.405792,200.400970 381.577240,199.528732 
	C378.281464,199.161514 374.944946,199.160049 370.688477,198.992218 
z"/>
<path fill="#FEFEFE" opacity="1.000000" stroke="none" 
	d="
M612.322144,644.612671 
	C626.549438,680.996582 645.245239,714.112793 674.223572,740.390686 
	C681.203796,746.720581 689.681580,751.399109 697.219238,756.661438 
	C679.043457,759.362732 660.192444,762.164185 641.341431,764.966064 
	C633.113708,766.188965 624.841675,767.175598 616.671265,768.705017 
	C609.013367,770.138489 602.251404,768.549500 595.772583,764.434143 
	C584.296936,757.144836 575.557983,747.149353 567.806213,736.247864 
	C552.101685,714.162354 540.832520,690.101929 536.526123,663.138794 
	C535.689514,657.900269 535.322876,652.535400 535.310913,647.227478 
	C535.287964,637.011536 538.661011,628.426331 546.330566,620.987305 
	C564.145996,603.707336 581.354797,585.801514 598.767151,568.107788 
	C599.907898,566.948608 600.691284,565.437683 602.286133,564.476562 
	C597.153259,592.423767 603.403625,618.491577 612.322144,644.612671 
z"/>
<path fill="#FEFEFE" opacity="1.000000" stroke="none" 
	d="
M861.914673,1364.078125 
	C855.222046,1361.454834 848.794189,1359.185303 842.634583,1356.335938 
	C837.162842,1353.804565 831.957642,1353.618896 826.248840,1355.480957 
	C815.378357,1359.026611 804.362244,1362.123901 793.422058,1365.457764 
	C783.965515,1368.339722 775.603455,1366.080444 767.395508,1360.945801 
	C762.148743,1357.663818 756.346680,1355.095581 750.517578,1352.961182 
	C742.718079,1350.105347 736.938965,1343.350708 736.837463,1335.740234 
	C736.734314,1328.009644 743.146606,1319.382446 750.925049,1317.027832 
	C772.038208,1310.636353 793.175720,1304.325317 814.294983,1297.953857 
	C823.107544,1295.295288 831.790771,1295.515503 839.936646,1299.901855 
	C861.480835,1311.503052 882.558228,1323.856567 900.056030,1341.315796 
	C903.081543,1344.334595 905.815430,1347.818237 907.967651,1351.505371 
	C913.085815,1360.273560 909.368042,1368.680420 899.251648,1369.812378 
	C892.300232,1370.590332 885.043030,1369.742920 878.054260,1368.720825 
	C872.694824,1367.936890 867.541199,1365.745239 861.914673,1364.078125 
z"/>
<path fill="#FEFEFE" opacity="1.000000" stroke="none" 
	d="
M394.329346,897.367676 
	C376.429871,910.832092 350.613098,909.065369 332.488312,896.134888 
	C327.767395,892.767029 325.091248,887.884338 324.361694,882.306030 
	C321.106659,857.416687 318.098572,832.494995 315.012451,807.583618 
	C314.973022,807.265381 315.080231,806.928955 315.172058,806.151794 
	C322.008911,810.827881 327.964447,808.599487 333.620819,803.997986 
	C335.811462,802.215942 338.036438,800.461426 340.359528,798.859375 
	C347.988373,793.598206 356.201172,794.471375 362.128265,801.553284 
	C365.091064,805.093384 367.419708,809.177612 369.910339,813.095093 
	C371.689423,815.893372 373.264374,818.821655 374.924103,821.695618 
	C381.414398,832.934265 391.080017,838.538208 404.768127,837.918640 
	C406.201355,849.047058 408.420349,860.003845 408.804016,871.024597 
	C409.185791,881.990479 403.324493,890.590820 394.329346,897.367676 
z"/>
<path fill="#FEFEFE" opacity="1.000000" stroke="none" 
	d="
M349.084045,723.894531 
	C347.033691,721.244324 345.194855,718.885742 343.155396,716.269775 
	C354.950317,699.547424 370.907959,689.437622 391.019684,686.051697 
	C401.922272,684.216125 401.928009,684.484070 407.432098,694.206177 
	C417.654175,712.261963 430.702484,728.173523 444.855103,743.229248 
	C450.046112,748.751404 449.971100,751.433899 443.438995,755.114502 
	C440.069489,757.013123 439.373993,759.819336 439.336670,762.902039 
	C439.291779,766.608765 437.637543,768.690125 434.383728,770.002808 
	C423.344025,774.456421 412.542725,779.634827 401.243042,783.270325 
	C391.171082,786.510803 387.658966,784.642395 382.127380,775.869202 
	C375.576263,765.478943 369.455811,754.817322 362.915070,744.420288 
	C358.587799,737.541809 353.849701,730.921753 349.084045,723.894531 
z"/>
<path fill="#FCFCFC" opacity="1.000000" stroke="none" 
	d="
M830.404419,875.516602 
	C832.376465,884.876526 834.179504,893.841248 836.083313,902.784607 
	C837.982544,911.706909 839.982910,920.607727 842.218689,930.792236 
	C837.425659,930.091797 832.653931,929.929382 828.222351,928.617676 
	C822.043213,926.788757 816.067871,924.222900 810.095764,921.753723 
	C798.685242,917.036133 795.511169,909.638855 798.877686,897.803833 
	C802.008728,886.796509 805.061157,875.720154 807.223755,864.496033 
	C809.817139,851.035339 808.409973,838.255432 799.552124,826.670105 
	C792.536743,817.494568 787.057373,807.157715 788.077698,794.983826 
	C788.993958,784.051086 790.429749,773.151184 791.989685,762.287537 
	C792.786133,756.740479 797.221130,755.043152 801.328430,758.844788 
	C803.751648,761.087646 805.618713,764.410645 806.625183,767.598511 
	C808.369263,773.122375 809.245667,778.919678 810.494934,784.600281 
	C816.842529,813.463440 823.194519,842.325562 829.537354,871.189758 
	C829.822815,872.488831 830.033875,873.804260 830.404419,875.516602 
z"/>
<path fill="#FDFDFD" opacity="1.000000" stroke="none" 
	d="
M835.505554,827.555298 
	C829.064148,820.767822 828.439453,812.886902 830.965515,804.953613 
	C836.078735,788.894958 859.956482,771.582153 876.961426,770.997864 
	C886.621887,770.665894 893.504517,775.084229 897.081665,784.210449 
	C902.192322,797.248901 899.717041,809.751160 893.407471,821.569702 
	C890.340759,827.314209 886.051270,832.405823 882.315247,837.793030 
	C881.874634,837.612488 881.434021,837.431946 880.993408,837.251465 
	C880.659119,833.790710 880.324829,830.330017 879.917664,826.115234 
	C878.531677,826.543640 876.767822,826.942566 875.119873,827.622314 
	C865.075867,831.764893 854.794250,834.041321 843.998657,831.219910 
	C841.157104,830.477173 838.518616,828.957153 835.505554,827.555298 
z"/>
<path fill="#FDFDFD" opacity="1.000000" stroke="none" 
	d="
M365.304016,453.445984 
	C361.219025,440.401428 365.037506,430.389343 375.541077,425.868073 
	C381.723114,423.206970 387.556061,424.680420 392.654449,427.318359 
	C395.373077,423.698181 397.371307,419.654053 400.550262,417.052765 
	C411.951263,407.723450 429.120178,415.322937 432.070435,430.674805 
	C433.455383,437.881226 431.743713,444.626740 428.704498,450.994507 
	C424.633636,459.523743 420.117096,467.840240 415.793457,476.248901 
	C414.350616,479.054901 412.116760,479.986664 409.174225,478.872498 
	C399.716492,475.291595 390.180206,471.892151 380.865082,467.969482 
	C374.159546,465.145721 368.495819,460.803619 365.304016,453.445984 
z"/>
<path fill="#FAFAFA" opacity="1.000000" stroke="none" 
	d="
M329.521729,740.346069 
	C333.477234,740.588928 337.834015,739.916809 340.588226,741.708374 
	C346.737579,745.708313 352.087433,750.937378 357.567902,755.503174 
	C353.053284,764.426819 345.932526,768.455994 338.731262,766.882568 
	C331.617035,765.328125 324.633240,757.345154 325.057709,749.964722 
	C325.242188,746.757446 327.745575,743.683533 329.521729,740.346069 
z"/>
<path fill="#131313" opacity="1.000000" stroke="none" 
	d="
M704.962708,1343.915771 
	C700.909180,1330.526855 706.534058,1320.554688 715.179016,1311.697754 
	C717.945496,1308.863525 721.184387,1306.439331 724.439758,1304.159546 
	C725.634155,1303.323120 727.500488,1303.446045 729.060303,1303.131348 
	C728.197388,1304.351318 727.489685,1305.727539 726.445068,1306.764526 
	C721.636475,1311.537720 716.098267,1315.726685 712.007446,1321.038330 
	C705.110291,1329.994263 705.149475,1339.738159 711.345154,1349.337402 
	C712.164429,1350.606812 712.753113,1352.025024 713.683838,1353.830811 
	C709.263489,1353.172363 708.814636,1352.628784 704.962708,1343.915771 
z"/>
<path fill="#070707" opacity="1.000000" stroke="none" 
	d="
M1121.679443,244.328247 
	C1102.193115,223.578583 1081.351074,205.021255 1056.508301,191.479492 
	C1043.443848,184.358093 1029.764893,178.662933 1014.663513,177.820450 
	C990.290222,176.460693 972.432739,187.299026 961.860596,209.477646 
	C953.306152,227.423325 950.502869,246.597992 950.044006,266.200500 
	C949.170227,303.531006 956.309082,339.689087 966.531006,375.354279 
	C968.904297,383.634857 971.610168,391.820160 974.285217,400.443542 
	C986.560791,396.749084 998.462341,393.193512 1010.347046,389.582520 
	C1020.994080,386.347565 1031.670898,383.199249 1042.243408,379.734650 
	C1050.314331,377.089783 1057.328613,379.481506 1064.019531,383.641693 
	C1074.678223,390.269043 1082.961426,399.438446 1090.034180,409.592590 
	C1104.652710,430.580200 1115.501587,453.262543 1118.337769,479.030945 
	C1119.020630,485.234192 1118.498047,491.656494 1117.817749,497.900482 
	C1117.049561,504.951935 1112.409668,509.777191 1107.007935,513.995178 
	C1090.076904,527.216492 1073.214478,540.525635 1056.329712,553.806274 
	C1055.430420,554.513611 1054.572021,555.273071 1053.091431,556.513733 
	C1061.232178,567.169189 1069.017456,577.904480 1077.367310,588.180969 
	C1097.817505,613.349731 1120.142456,636.649597 1146.963501,655.205750 
	C1160.273315,664.414124 1174.390991,672.058472 1190.056274,676.661682 
	C1220.869263,685.716248 1247.028564,674.060913 1259.677246,644.609619 
	C1263.505737,635.694946 1266.230957,626.051636 1267.805908,616.469910 
	C1273.346069,582.762085 1269.421753,549.397217 1262.512573,516.284973 
	C1255.157837,481.036316 1243.629761,447.111877 1229.605591,413.996735 
	C1228.847656,412.206757 1228.455688,410.261780 1227.893311,408.388947 
	C1228.391479,408.153717 1228.889771,407.918488 1229.387939,407.683228 
	C1230.241333,408.880249 1231.344727,409.969757 1231.911865,411.289734 
	C1251.293457,456.399414 1265.843018,502.909088 1271.680298,551.825562 
	C1274.713013,577.240051 1275.265503,602.666992 1269.065796,627.808533 
	C1265.764526,641.196289 1260.757690,653.839478 1251.452026,664.251160 
	C1235.395142,682.216431 1215.114990,685.828674 1192.655518,680.401611 
	C1168.126343,674.474243 1147.668701,660.815674 1128.585938,645.033752 
	C1089.902222,613.041443 1059.552734,573.935303 1033.401611,531.442810 
	C998.519287,474.762939 971.659485,414.625275 956.502991,349.579315 
	C949.597351,319.942566 945.520874,289.980865 947.059021,259.469513 
	C947.918274,242.423813 950.741211,225.735947 957.911804,210.059937 
	C971.190063,181.031433 995.987427,168.978256 1026.992554,176.339020 
	C1044.244019,180.434647 1059.579590,188.615845 1074.078369,198.491257 
	C1099.203369,215.604385 1120.447266,236.924271 1140.036621,259.989319 
	C1140.964844,261.082153 1141.362183,262.625885 1142.006714,263.959625 
	C1141.482788,264.299530 1140.958984,264.639435 1140.435181,264.979370 
	C1134.264893,258.180023 1128.094727,251.380692 1121.679443,244.328247 
M1085.090820,408.455414 
	C1077.164307,398.530731 1068.856323,388.978912 1056.858398,383.785248 
	C1046.278687,379.205475 1039.240112,382.700653 1035.865234,393.637512 
	C1033.333130,401.843353 1033.949341,410.123413 1035.400146,418.295258 
	C1040.078125,444.643036 1051.980103,467.724731 1068.528809,488.442932 
	C1075.692627,497.411957 1083.846680,505.565887 1095.231812,509.292480 
	C1104.994263,512.487976 1112.236450,509.133728 1113.937866,499.083557 
	C1115.324829,490.889923 1115.595215,482.120880 1114.300903,473.932495 
	C1110.497559,449.866425 1099.804077,428.583008 1085.090820,408.455414 
z"/>
<path fill="#020202" opacity="1.000000" stroke="none" 
	d="
M1358.450562,1261.416992 
	C1353.547485,1275.777588 1348.859619,1289.795898 1344.075684,1303.781372 
	C1341.973145,1309.927734 1339.033203,1312.075806 1332.638428,1312.143188 
	C1323.973755,1312.234375 1315.306885,1312.218262 1306.641724,1312.154419 
	C1297.170654,1312.084595 1292.637695,1305.865356 1295.666504,1296.858887 
	C1302.544922,1276.405640 1309.564331,1255.999878 1316.529785,1235.576050 
	C1327.354858,1203.835327 1338.185547,1172.096436 1349.007080,1140.354370 
	C1351.661743,1132.567993 1354.309448,1130.568848 1362.460327,1130.504639 
	C1370.125610,1130.444214 1377.792236,1130.447266 1385.457520,1130.502319 
	C1396.192139,1130.579346 1400.582397,1136.677246 1397.154663,1146.861084 
	C1384.338745,1184.936768 1371.473389,1222.995850 1358.450562,1261.416992 
z"/>
<path fill="#030303" opacity="1.000000" stroke="none" 
	d="
M1236.501221,1215.431152 
	C1241.726685,1198.499512 1241.742310,1198.487671 1259.139160,1198.488037 
	C1264.963501,1198.488159 1270.790771,1198.375122 1276.611694,1198.517334 
	C1285.964478,1198.745850 1290.329346,1204.975220 1287.400146,1214.105713 
	C1281.169434,1233.526123 1274.790039,1252.898682 1268.463135,1272.288208 
	C1265.017822,1282.847046 1261.599365,1293.415039 1258.083618,1303.950439 
	C1255.945190,1310.358154 1253.003174,1312.460938 1246.309692,1312.500488 
	C1238.156006,1312.548584 1230.001465,1312.545288 1221.847534,1312.504028 
	C1210.577759,1312.446899 1206.423584,1306.770874 1209.912964,1296.124512 
	C1218.692505,1269.337158 1227.518433,1242.565063 1236.501221,1215.431152 
z"/>
<path fill="#030303" opacity="1.000000" stroke="none" 
	d="
M1186.960449,1258.014160 
	C1182.159302,1273.080444 1177.451904,1287.758911 1172.712524,1302.427246 
	C1170.069946,1310.605469 1167.459839,1312.504395 1158.989502,1312.512695 
	C1150.837524,1312.520630 1142.683594,1312.621826 1134.533936,1312.484009 
	C1124.941528,1312.321899 1120.648071,1306.351562 1123.590088,1297.212891 
	C1129.077515,1280.168457 1134.674072,1263.158813 1140.291382,1246.156616 
	C1142.356567,1239.905396 1145.342163,1237.656616 1152.092896,1237.526978 
	C1160.408203,1237.367188 1168.729858,1237.413452 1177.047119,1237.504639 
	C1187.108765,1237.614990 1191.424438,1243.696289 1188.424316,1253.365356 
	C1187.982300,1254.790039 1187.503052,1256.203491 1186.960449,1258.014160 
z"/>
<path fill="#040404" opacity="1.000000" stroke="none" 
	d="
M1085.739502,1305.541260 
	C1083.387817,1310.699463 1079.576782,1312.627319 1074.375854,1312.553711 
	C1065.551147,1312.428589 1056.723145,1312.555054 1047.896851,1312.508545 
	C1039.990601,1312.466919 1035.007690,1306.422241 1037.247559,1298.890381 
	C1040.084351,1289.350708 1043.501465,1279.981445 1046.760742,1270.570801 
	C1048.285278,1266.169067 1051.618408,1263.761597 1056.184937,1263.679077 
	C1066.003418,1263.501709 1075.841919,1263.276611 1085.643677,1263.713745 
	C1093.285889,1264.054810 1096.979248,1270.658325 1094.489014,1278.664429 
	C1091.728271,1287.539551 1088.763794,1296.350952 1085.739502,1305.541260 
z"/>
<path fill="#131313" opacity="1.000000" stroke="none" 
	d="
M1328.997192,1119.011475 
	C1364.123779,1089.698486 1394.316406,1056.437744 1418.876343,1017.807861 
	C1409.019287,1022.513123 1399.162354,1027.218384 1389.305298,1031.923584 
	C1388.935059,1031.126709 1388.564819,1030.329834 1388.194580,1029.533081 
	C1399.472656,1022.811829 1411.637451,1017.776428 1424.334229,1011.217102 
	C1426.022949,1024.288452 1428.641479,1036.286133 1429.224854,1048.530273 
	C1428.374268,1048.666138 1427.523682,1048.802002 1426.673096,1048.937866 
	C1425.235107,1039.861328 1423.797119,1030.784912 1422.296387,1021.313171 
	C1331.987427,1149.866821 1205.119629,1217.246826 1054.937988,1246.121094 
	C1054.451782,1245.186768 1053.965454,1244.252441 1053.479248,1243.318115 
	C1055.403320,1242.592041 1057.271484,1241.599854 1059.260254,1241.182495 
	C1073.731201,1238.145142 1088.374390,1235.804565 1102.688721,1232.165161 
	C1166.640991,1215.904419 1226.693970,1190.454712 1281.747070,1153.901367 
	C1297.939087,1143.150391 1313.083496,1130.821655 1328.997192,1119.011475 
z"/>
<path fill="#050505" opacity="1.000000" stroke="none" 
	d="
M681.107422,222.074036 
	C676.306458,223.600845 671.859680,224.945709 667.496887,226.522705 
	C666.463745,226.896164 665.125427,227.964630 664.995667,228.867035 
	C664.864868,229.776154 665.815918,231.323456 666.718323,231.823547 
	C675.254883,236.554459 683.882324,241.121414 692.373413,245.676498 
	C705.199280,235.457367 718.047791,244.890091 718.841003,255.442352 
	C719.486572,264.030090 713.121338,271.531952 704.583679,272.102905 
	C695.953613,272.680054 688.382141,266.315155 688.299561,257.590240 
	C688.265930,254.041611 686.813110,252.654968 684.177917,251.281921 
	C677.409729,247.755371 670.675781,244.159271 664.000122,240.460999 
	C661.657959,239.163467 659.981567,238.858643 657.378418,240.595001 
	C650.470886,245.202377 641.782166,243.329926 637.026672,236.815674 
	C632.372986,230.440796 633.121887,221.679382 638.773010,216.387253 
	C644.914856,210.635574 653.620239,210.486786 659.824158,216.537506 
	C661.938965,218.600098 663.629456,218.475449 665.928223,217.716827 
	C675.064636,214.701614 684.218323,211.738831 693.573181,208.688995 
	C694.006165,206.961121 694.354187,205.006744 694.987061,203.149429 
	C697.167480,196.750397 703.080872,192.706482 709.890686,192.834518 
	C716.523193,192.959198 722.231384,197.436127 724.172791,204.035767 
	C726.071533,210.490204 723.592102,217.391495 718.037781,221.112411 
	C712.240112,224.996384 705.088501,225.100571 700.108704,220.239426 
	C696.933167,217.139557 694.311401,217.643661 690.960632,218.890488 
	C687.852112,220.047211 684.652161,220.957947 681.107422,222.074036 
z"/>
<path fill="#050505" opacity="1.000000" stroke="none" 
	d="
M371.157715,198.992279 
	C374.944946,199.160049 378.281464,199.161514 381.577240,199.528732 
	C389.405792,200.400970 394.889679,204.305618 397.170868,212.125626 
	C399.507416,220.135498 397.157471,226.842422 391.419342,232.541763 
	C389.792419,234.157639 387.907745,235.514008 385.970886,237.131744 
	C387.061340,240.416763 388.138123,243.660599 389.293976,247.142578 
	C386.025360,248.401398 383.135986,249.514175 379.772736,250.809464 
	C378.626068,247.743713 377.551270,244.870148 376.481445,242.009903 
	C370.420593,242.693069 364.419434,243.369507 358.153320,244.075806 
	C357.699036,239.083115 357.328064,235.005890 357.013031,231.543213 
	C362.863403,230.664719 368.294495,230.181656 373.538391,228.920364 
	C376.130249,228.296936 378.745636,226.621689 380.697388,224.743683 
	C384.008972,221.557190 382.795685,216.647247 378.445221,215.147049 
	C376.142426,214.352951 373.572998,214.206360 371.105743,214.043640 
	C367.292145,213.792130 363.427551,214.064987 359.647827,213.600723 
	C352.352081,212.704590 346.616913,209.311966 344.475128,201.834610 
	C342.256836,194.090042 344.440002,187.413498 350.353516,181.968796 
	C351.806702,180.630783 353.331451,179.370453 355.024200,177.899887 
	C354.053436,174.960022 353.078583,172.007828 351.950562,168.591736 
	C355.044403,167.388977 358.061920,166.215897 361.500092,164.879257 
	C362.566071,167.755936 363.571960,170.470398 364.557159,173.129028 
	C369.610565,172.452271 374.498169,171.797729 379.984955,171.062927 
	C380.427979,175.655930 380.812531,179.642990 381.154358,183.186859 
	C375.739136,184.187500 370.801270,184.743164 366.087616,186.085831 
	C362.431274,187.127335 358.481262,188.973557 359.119995,193.831375 
	C359.762390,198.717041 364.215759,198.236359 367.698792,198.853485 
	C368.672974,199.026108 369.690704,198.952744 371.157715,198.992279 
z"/>
<path fill="#FEFEFE" opacity="1.000000" stroke="none" 
	d="
M1085.310425,408.735535 
	C1099.804077,428.583008 1110.497559,449.866425 1114.300903,473.932495 
	C1115.595215,482.120880 1115.324829,490.889923 1113.937866,499.083557 
	C1112.236450,509.133728 1104.994263,512.487976 1095.231812,509.292480 
	C1083.846680,505.565887 1075.692627,497.411957 1068.528809,488.442932 
	C1051.980103,467.724731 1040.078125,444.643036 1035.400146,418.295258 
	C1033.949341,410.123413 1033.333130,401.843353 1035.865234,393.637512 
	C1039.240112,382.700653 1046.278687,379.205475 1056.858398,383.785248 
	C1068.856323,388.978912 1077.164307,398.530731 1085.310425,408.735535 
z"/>
</svg>